<?xml version="1.0" encoding="utf-8"?>
<svg version="1.1" xmlns:xlink="http://www.w3.org/1999/xlink" width="12px" height="12px" viewBox="955 544  12 12" xmlns="http://www.w3.org/2000/svg">
  <path d="M 961 544  C 964.36 544  967 546.64  967 550  C 967 553.36  964.36 556  961 556  C 957.64 556  955 553.36  955 550  C 955 546.64  957.64 544  961 544  Z " fill-rule="nonzero" fill="#ffffff" stroke="none" />
  <path d="M 961 544.5  C 964.08 544.5  966.5 546.92  966.5 550  C 966.5 553.08  964.08 555.5  961 555.5  C 957.92 555.5  955.5 553.08  955.5 550  C 955.5 546.92  957.92 544.5  961 544.5  Z " stroke-width="1" stroke="#797979" fill="none" />
  <path d="M 961 553  C 959.32 553  958 551.68  958 550  C 958 548.32  959.32 547  961 547  C 962.68 547  964 548.32  964 550  C 964 551.68  962.68 553  961 553  " fill-rule="nonzero" fill="#797979" stroke="none" />
</svg>