<?xml version="1.0" encoding="utf-8"?>
<svg version="1.1" xmlns:xlink="http://www.w3.org/1999/xlink" width="12px" height="12px" viewBox="955 528  12 12" xmlns="http://www.w3.org/2000/svg">
  <path d="M 961 528  C 964.36 528  967 530.64  967 534  C 967 537.36  964.36 540  961 540  C 957.64 540  955 537.36  955 534  C 955 530.64  957.64 528  961 528  Z " fill-rule="nonzero" fill="#f0f0f0" stroke="none" />
  <path d="M 961 528.5  C 964.08 528.5  966.5 530.92  966.5 534  C 966.5 537.08  964.08 539.5  961 539.5  C 957.92 539.5  955.5 537.08  955.5 534  C 955.5 530.92  957.92 528.5  961 528.5  Z " stroke-width="1" stroke="#797979" fill="none" />
  <path d="M 961 537  C 959.32 537  958 535.68  958 534  C 958 532.32  959.32 531  961 531  C 962.68 531  964 532.32  964 534  C 964 535.68  962.68 537  961 537  " fill-rule="nonzero" fill="#797979" stroke="none" />
</svg>