<?xml version="1.0" encoding="utf-8"?>
<svg version="1.1" xmlns:xlink="http://www.w3.org/1999/xlink" width="12px" height="12px" viewBox="965 554  12 12" xmlns="http://www.w3.org/2000/svg">
  <path d="M 971 554  C 974.36 554  977 556.64  977 560  C 977 563.36  974.36 566  971 566  C 967.64 566  965 563.36  965 560  C 965 556.64  967.64 554  971 554  Z " fill-rule="nonzero" fill="#f0f0f0" stroke="none" />
  <path d="M 971 554.5  C 974.08 554.5  976.5 556.92  976.5 560  C 976.5 563.08  974.08 565.5  971 565.5  C 967.92 565.5  965.5 563.08  965.5 560  C 965.5 556.92  967.92 554.5  971 554.5  Z " stroke-width="1" stroke="#797979" fill="none" />
  <path d="M 971 563  C 969.32 563  968 561.68  968 560  C 968 558.32  969.32 557  971 557  C 972.68 557  974 558.32  974 560  C 974 561.68  972.68 563  971 563  " fill-rule="nonzero" fill="#797979" stroke="none" />
</svg>