<?xml version="1.0" encoding="utf-8"?>
<svg version="1.1" xmlns:xlink="http://www.w3.org/1999/xlink" width="12px" height="12px" viewBox="762 367  12 12" xmlns="http://www.w3.org/2000/svg">
  <path d="M 768 367  C 771.36 367  774 369.64  774 373  C 774 376.36  771.36 379  768 379  C 764.64 379  762 376.36  762 373  C 762 369.64  764.64 367  768 367  Z " fill-rule="nonzero" fill="#f0f0f0" stroke="none" />
  <path d="M 768 367.5  C 771.08 367.5  773.5 369.92  773.5 373  C 773.5 376.08  771.08 378.5  768 378.5  C 764.92 378.5  762.5 376.08  762.5 373  C 762.5 369.92  764.92 367.5  768 367.5  Z " stroke-width="1" stroke="#797979" fill="none" />
  <path d="M 768 376  C 766.32 376  765 374.68  765 373  C 765 371.32  766.32 370  768 370  C 769.68 370  771 371.32  771 373  C 771 374.68  769.68 376  768 376  " fill-rule="nonzero" fill="#797979" stroke="none" />
</svg>