<?xml version="1.0" encoding="utf-8"?>
<svg version="1.1" xmlns:xlink="http://www.w3.org/1999/xlink" width="93px" height="57px" xmlns="http://www.w3.org/2000/svg">
  <g transform="matrix(1 0 0 1 -717 -391 )">
    <path d="M 717 391  L 810 391  L 810 448  L 717 448  L 717 391  " fill-rule="nonzero" fill="#cccccc" stroke="none" />
    <path d="M 721 395  L 806 395  L 806 444  L 721 444  L 721 395  " fill-rule="nonzero" fill="#ffffff" stroke="none" />
    <path d="M 769.635 408.1  C 767.241 408.1  765.36 406.219  765.36 403.825  C 765.36 401.431  767.241 399.55  769.635 399.55  C 772.029 399.55  773.91 401.431  773.91 403.825  C 773.91 406.219  772.029 408.1  769.635 408.1  " fill-rule="nonzero" fill="#cccccc" stroke="none" />
    <path d="M 723 443  L 723 417.7  L 743.5 406.2  L 772.2 426.083870967742  L 788.6 413.1  L 805 426.083870967742  L 805 443  L 723 443  " fill-rule="nonzero" fill="#169bd5" stroke="none" />
  </g>
</svg>